<svg width="65" height="65" viewBox="0 0 65 65" fill="none" xmlns="http://www.w3.org/2000/svg">
<path d="M48.7357 0H16.2687C7.29917 0 0.00219727 7.6211 0.00219727 16.9891V48.0109C0.00219727 57.3789 7.29917 65 16.2687 65H48.7357C57.7052 65 65.0022 57.3789 65.0022 48.0109V16.9891C65.0022 7.6211 57.7052 0 48.7357 0ZM5.74052 16.9891C5.74052 10.9268 10.4642 5.99316 16.2687 5.99316H48.7357C54.5401 5.99316 59.2639 10.9268 59.2639 16.9891V48.0109C59.2639 54.0732 54.5401 59.0068 48.7357 59.0068H16.2687C10.4642 59.0068 5.74052 54.0732 5.74052 48.0109V16.9891Z" fill="#18514B"/>
<path d="M32.5022 48.2989C40.8432 48.2989 47.6329 41.2115 47.6329 32.4962C47.6329 23.7809 40.8469 16.6935 32.5022 16.6935C24.1576 16.6935 17.3716 23.7809 17.3716 32.4962C17.3716 41.2115 24.1576 48.2989 32.5022 48.2989ZM32.5022 22.6905C37.6818 22.6905 41.8946 27.0904 41.8946 32.5C41.8946 37.9097 37.6818 42.3096 32.5022 42.3096C27.3227 42.3096 23.1099 37.9097 23.1099 32.5C23.1099 27.0904 27.3227 22.6905 32.5022 22.6905Z" fill="#18514B"/>
<path d="M49.0335 19.2466C51.2796 19.2466 53.1103 17.3385 53.1103 14.9888C53.1103 12.6391 51.2833 10.731 49.0335 10.731C46.7838 10.731 44.9568 12.6391 44.9568 14.9888C44.9568 17.3385 46.7838 19.2466 49.0335 19.2466Z" fill="#18514B"/>
</svg>
