<svg width="366" height="112" viewBox="0 0 366 112" fill="none" xmlns="http://www.w3.org/2000/svg">
<path d="M151.651 50H142.642L134.732 36.6455H130.948V50H123.55V14.9902H137.051C139.004 14.9902 140.827 15.4704 142.52 16.4307C144.213 17.391 145.564 18.7093 146.573 20.3857C147.582 22.0459 148.086 23.8525 148.086 25.8057C148.086 28.0192 147.59 29.9723 146.597 31.665C145.604 33.3577 144.237 34.6354 142.496 35.498L151.651 50ZM130.948 22.1436V30.249H136.294C137.499 30.249 138.516 29.8584 139.346 29.0771C140.176 28.2959 140.591 27.3193 140.591 26.1475C140.591 25.0244 140.176 24.0804 139.346 23.3154C138.516 22.5342 137.499 22.1436 136.294 22.1436H130.948ZM155.459 14.8193C156.306 13.973 157.315 13.5498 158.487 13.5498C159.659 13.5498 160.668 13.973 161.514 14.8193C162.361 15.6494 162.784 16.6423 162.784 17.7979C162.784 18.9697 162.361 19.9788 161.514 20.8252C160.668 21.6715 159.659 22.0947 158.487 22.0947C157.315 22.0947 156.306 21.6715 155.459 20.8252C154.613 19.9788 154.19 18.9697 154.19 17.7979C154.19 16.6423 154.613 15.6494 155.459 14.8193ZM154.971 25.4395H162.027V50H154.971V25.4395ZM182.583 43.457L182.95 49.707C182.006 50.1628 180.801 50.3906 179.336 50.3906C176.407 50.3906 174.039 49.5117 172.232 47.7539C170.442 45.9798 169.546 43.5303 169.546 40.4053V32.1533H164.981V25.4395H169.546V18.9941H176.602V25.4395H182.632V32.1533H176.602V40.0391C176.602 41.1621 176.968 42.0736 177.701 42.7734C178.433 43.457 179.328 43.7988 180.386 43.7988C181.2 43.7988 181.932 43.6849 182.583 43.457ZM215.274 24.9512C218.236 24.9512 220.645 25.8464 222.5 27.6367C224.372 29.4271 225.308 31.7952 225.308 34.7412V50H218.204V36.4014C218.204 34.9528 217.821 33.8053 217.056 32.959C216.291 32.1126 215.274 31.6895 214.004 31.6895C212.751 31.6895 211.693 32.1045 210.831 32.9346C209.984 33.7484 209.561 34.904 209.561 36.4014V50H202.505V36.4014C202.505 34.9528 202.123 33.8053 201.358 32.959C200.593 32.1126 199.559 31.6895 198.257 31.6895C197.02 31.6895 195.987 32.0964 195.157 32.9102C194.327 33.724 193.912 34.8877 193.912 36.4014V50H186.856V25.4395H193.912V28.3936C195.49 26.0986 197.826 24.9512 200.918 24.9512C204.157 24.9512 206.477 26.1475 207.876 28.54C208.609 27.4658 209.642 26.6032 210.977 25.9521C212.312 25.2848 213.744 24.9512 215.274 24.9512ZM241.983 24.9512C243.757 24.9512 245.425 25.2767 246.988 25.9277C248.567 26.5788 249.917 27.474 251.041 28.6133C252.18 29.7363 253.075 31.0954 253.726 32.6904C254.393 34.2692 254.727 35.9538 254.727 37.7441C254.727 40.1367 254.166 42.3096 253.042 44.2627C251.936 46.2158 250.406 47.7458 248.453 48.8525C246.516 49.943 244.359 50.4883 241.983 50.4883C238.353 50.4883 235.318 49.2757 232.876 46.8506C230.435 44.4255 229.214 41.39 229.214 37.7441C229.214 34.0983 230.435 31.0547 232.876 28.6133C235.318 26.1719 238.353 24.9512 241.983 24.9512ZM241.983 31.6895C240.306 31.6895 238.907 32.2673 237.784 33.4229C236.677 34.5622 236.124 36.0026 236.124 37.7441C236.124 39.4368 236.677 40.861 237.784 42.0166C238.907 43.1722 240.306 43.75 241.983 43.75C243.627 43.75 245.01 43.1722 246.133 42.0166C247.256 40.861 247.818 39.4368 247.818 37.7441C247.818 36.0026 247.256 34.5622 246.133 33.4229C245.027 32.2673 243.643 31.6895 241.983 31.6895ZM267.422 50.4883C262.963 50.4883 259.292 49.4629 256.412 47.4121L258.511 42.5049C260.822 44.2301 263.589 45.0928 266.812 45.0928C267.903 45.0928 268.773 44.9056 269.424 44.5312C270.092 44.1569 270.425 43.6768 270.425 43.0908C270.425 42.5863 270.173 42.1712 269.668 41.8457C269.18 41.5039 268.545 41.2354 267.764 41.04C266.983 40.8447 266.12 40.6494 265.176 40.4541C264.232 40.2425 263.288 39.974 262.344 39.6484C261.4 39.3066 260.538 38.8916 259.756 38.4033C258.975 37.8988 258.332 37.1989 257.828 36.3037C257.339 35.3923 257.087 34.3262 257.071 33.1055C257.038 30.7943 257.95 28.8574 259.805 27.2949C261.661 25.7324 264.029 24.9512 266.91 24.9512C270.8 24.9512 273.917 25.887 276.26 27.7588L274.258 32.8613C273.282 32.1289 272.085 31.5186 270.669 31.0303C269.27 30.542 267.919 30.2979 266.617 30.2979C265.722 30.2979 264.997 30.485 264.444 30.8594C263.89 31.2337 263.614 31.6976 263.614 32.251C263.614 32.6742 263.809 33.0485 264.2 33.374C264.59 33.6833 265.095 33.9355 265.713 34.1309C266.348 34.3262 267.064 34.5459 267.862 34.79C268.676 35.0179 269.498 35.2458 270.328 35.4736C271.158 35.7015 271.972 36.0189 272.769 36.4258C273.583 36.8327 274.307 37.2965 274.942 37.8174C275.577 38.3219 276.089 38.9893 276.48 39.8193C276.887 40.6494 277.098 41.5934 277.115 42.6514C277.115 44.93 276.203 46.8099 274.38 48.291C272.574 49.7559 270.254 50.4883 267.422 50.4883ZM309.268 14.9902H316.324V50H309.268V46.5088C307.478 49.1618 304.874 50.4883 301.456 50.4883C299.372 50.4883 297.452 49.9186 295.694 48.7793C293.952 47.6237 292.577 46.0693 291.568 44.1162C290.559 42.1468 290.054 40.0065 290.054 37.6953C290.054 35.3841 290.559 33.252 291.568 31.2988C292.577 29.3294 293.952 27.7832 295.694 26.6602C297.452 25.5208 299.372 24.9512 301.456 24.9512C304.874 24.9512 307.478 26.2858 309.268 28.9551V14.9902ZM303.116 43.75C304.841 43.75 306.298 43.1722 307.486 42.0166C308.674 40.8447 309.268 39.4043 309.268 37.6953C309.268 36.0026 308.674 34.5703 307.486 33.3984C306.298 32.2266 304.841 31.6406 303.116 31.6406C301.423 31.6406 299.974 32.2347 298.77 33.4229C297.566 34.5947 296.963 36.0189 296.963 37.6953C296.963 39.388 297.557 40.8203 298.746 41.9922C299.95 43.1641 301.407 43.75 303.116 43.75ZM344.546 36.6455C344.546 37.6383 344.481 38.5579 344.351 39.4043H326.7C327.025 41.0645 327.733 42.334 328.824 43.2129C329.914 44.0755 331.306 44.5068 332.999 44.5068C334.105 44.5068 335.163 44.2708 336.172 43.7988C337.198 43.3268 337.922 42.7246 338.345 41.9922L343.838 45.3613C342.943 46.9889 341.527 48.2503 339.59 49.1455C337.653 50.0407 335.407 50.4883 332.852 50.4883C329.239 50.4883 326.179 49.2513 323.672 46.7773C321.182 44.2871 319.937 41.2272 319.937 37.5977C319.937 34.0332 321.166 31.0384 323.624 28.6133C326.097 26.1719 329.125 24.9512 332.706 24.9512C336.026 24.9512 338.825 26.0824 341.104 28.3447C343.399 30.6071 344.546 33.374 344.546 36.6455ZM326.797 34.9121H337.491C337.344 33.6914 336.775 32.6742 335.782 31.8604C334.789 31.0465 333.641 30.6396 332.339 30.6396C330.875 30.6396 329.67 31.014 328.726 31.7627C327.782 32.5114 327.139 33.5612 326.797 34.9121ZM355.533 14.9902V50H348.477V14.9902H355.533ZM146.988 100L144.791 94.1406H131.29L129.043 100H121.182L135.098 64.9902H141.08L155.044 100H146.988ZM133.731 87.793H142.349L138.101 76.6113L133.731 87.793ZM164.908 64.9902V100H157.852V64.9902H164.908ZM198.331 74.9512C201.293 74.9512 203.702 75.8464 205.557 77.6367C207.429 79.4271 208.365 81.7952 208.365 84.7412V100H201.26V86.4014C201.26 84.9528 200.878 83.8053 200.113 82.959C199.348 82.1126 198.331 81.6895 197.061 81.6895C195.808 81.6895 194.75 82.1045 193.887 82.9346C193.041 83.7484 192.618 84.904 192.618 86.4014V100H185.562V86.4014C185.562 84.9528 185.18 83.8053 184.415 82.959C183.65 82.1126 182.616 81.6895 181.314 81.6895C180.077 81.6895 179.043 82.0964 178.213 82.9102C177.383 83.724 176.968 84.8877 176.968 86.4014V100H169.913V75.4395H176.968V78.3936C178.547 76.0986 180.883 74.9512 183.975 74.9512C187.214 74.9512 189.533 76.1475 190.933 78.54C191.666 77.4658 192.699 76.6032 194.034 75.9521C195.368 75.2848 196.801 74.9512 198.331 74.9512ZM231.485 75.4395H238.541V100H231.485V96.5088C229.694 99.1618 227.09 100.488 223.672 100.488C221.589 100.488 219.668 99.9186 217.911 98.7793C216.169 97.6237 214.794 96.0693 213.785 94.1162C212.776 92.1468 212.271 90.0065 212.271 87.6953C212.271 85.3841 212.776 83.252 213.785 81.2988C214.794 79.3294 216.169 77.7832 217.911 76.6602C219.668 75.5208 221.589 74.9512 223.672 74.9512C227.09 74.9512 229.694 76.2858 231.485 78.9551V75.4395ZM225.333 93.75C227.058 93.75 228.514 93.1722 229.703 92.0166C230.891 90.8447 231.485 89.4043 231.485 87.6953C231.485 86.0026 230.891 84.5703 229.703 83.3984C228.514 82.2266 227.058 81.6406 225.333 81.6406C223.64 81.6406 222.191 82.2347 220.987 83.4229C219.782 84.5947 219.18 86.0189 219.18 87.6953C219.18 89.388 219.774 90.8203 220.962 91.9922C222.167 93.1641 223.624 93.75 225.333 93.75Z" fill="#18514B"/>
<path d="M97.0878 77.215C99.6786 78.9127 101.896 80.3548 104.556 82.089C103.319 82.874 102.574 83.3577 102.23 83.5676C99.9337 82.4997 97.9907 81.1489 95.8415 80.7655C94.3204 80.4917 92.3969 81.3041 90.866 82.0251C87.4705 83.6224 86.0476 87.4194 87.235 90.97C88.393 94.4384 92.2596 96.6016 96.4303 96.127C99.9828 95.7162 102.819 92.8776 103.104 89.4092C103.162 88.6516 103.251 87.8575 103.064 87.1365C102.603 85.3658 104.144 85.238 105.302 84.6721C107.304 87.173 106.519 90.0025 105.606 92.4395C104.733 94.767 102.868 96.7294 100.15 97.8886C93.8886 100.554 88.1477 98.4544 83.496 91.2803C83.3194 92.6038 83.1428 93.5713 83.0741 94.5479C82.8778 97.56 82.7208 97.7699 79.3155 97.779C69.5117 97.8064 59.6982 97.7882 49.8945 97.7882H42.2693V91.7276C38.8739 97.3865 33.9475 99.7962 27.3528 98.6553C23.1329 97.9251 18.7365 93.0145 18.9131 88.7794C19.1486 83.1478 22.8385 79.4694 28.5304 77.5618V60.74C27.0682 60.5392 25.5373 60.3384 23.7708 60.1011C22.7895 48.5184 23.2114 37.2917 31.9749 27.498C32.7796 28.0913 33.4862 28.6115 34.4578 29.3326C31.1997 32.372 29.4038 35.9682 28.2262 40.3311C31.7885 39.6739 34.5853 38.0036 37.5687 36.7988C39.2075 36.1325 39.3547 34.736 39.129 33.3213C38.7659 30.9573 38.3243 28.6024 37.8729 26.0102C37.1467 26.2384 36.3322 26.7313 35.5667 26.6674C34.8798 26.6126 34.2419 25.9555 33.4372 25.4808C41.7787 17.4396 51.8179 12.8485 63.6531 13.3414C81.8768 14.0898 95.3017 24.1026 100.689 40.2946C102.78 46.5651 101.916 53.2008 101.896 60.0098C100.356 60.2197 98.8444 60.4297 97.0682 60.6761V77.215H97.0878ZM37.5098 49.4768H88.0005C87.7846 36.0047 76.6756 25.9372 62.5049 26.1471C48.3243 26.3571 37.6079 36.0595 37.5098 49.4768ZM45.498 94.4749C49.3351 95.2416 74.3008 95.342 79.6001 94.6301C79.6001 92.7407 79.6786 90.7965 79.5804 88.8524C79.4823 86.7987 80.0122 84.6903 79.237 82.7371C64.5657 81.9795 48.6776 82.2807 45.498 83.3668V94.4749ZM60.866 60.667C59.1715 60.6792 57.7846 61.4215 56.7051 62.8941C52.5343 68.5896 44.6246 68.3888 41.3665 62.2095C40.1692 59.9459 39.0996 60.3201 37.2154 60.7126C38.3243 64.6192 40.5716 67.403 44.4185 69.2741C43.8101 70.05 43.3587 70.6341 42.9269 71.2C41.7002 70.7254 40.6305 70.3147 39.2958 69.7944C39.129 75.4808 38.2752 80.939 42.3184 86.6162C42.3184 84.7177 42.2694 83.6772 42.3282 82.6458C42.4754 80.1723 42.7698 79.9076 45.5373 79.8437C47.6177 79.7889 49.708 79.8345 51.9455 79.8345C53.2311 76.9503 54.3989 74.3307 55.7924 71.2274C52.2105 72.6787 49.2468 72.7425 46.2536 72.1584C46.0672 70.7984 46.0181 69.7488 47.7159 69.7396C48.5304 69.7396 49.3449 69.7761 50.1594 69.7396C55.8219 69.4841 59.4332 66.4994 60.8856 60.6579L60.866 60.667ZM82.4067 86.5888C87.1467 81.5596 86.4794 75.6907 86.1163 69.0003C80.8464 73.2993 75.498 72.9342 69.7178 71.5286C71.1604 74.5498 72.4362 77.2058 73.7708 80.008H82.4067V86.5888ZM22.3577 88.3139C22.2988 93.0236 25.3704 96.0631 30.2772 96.1726C34.6246 96.273 38.9916 92.6129 39.0799 88.7885C39.1781 84.4804 35.1938 80.8477 30.5323 80.5647C26.7836 80.3365 21.7689 83.9236 22.3577 88.3139ZM70.6697 79.6976C67.5589 74.9423 66.9504 69.4567 62.603 65.4224C58.7757 69.7761 57.6668 74.9057 54.9779 79.6976H70.6697ZM92.181 58.8415C90.6403 62.0544 89.5118 64.3271 88.4813 66.6454C88.2458 67.1657 88.2851 67.832 88.3538 68.4162C88.7757 72.0762 89.2468 75.7272 89.6982 79.369C90.1594 79.1591 90.5814 78.8123 91.0329 78.7849C93.29 78.648 94.0064 77.5344 93.9573 75.499C93.8395 70.9718 93.9867 66.4355 93.869 61.9083C93.8493 61.169 93.0839 60.4388 92.181 58.8415ZM33.4077 59.0697C32.446 60.311 31.6217 60.886 31.602 61.4793C31.5039 66.4629 31.5039 71.4465 31.6315 76.43C31.6511 77.1511 32.3871 78.1003 33.0839 78.5019C33.8984 78.9766 35.0368 78.9766 36.234 79.223C36.234 77.2789 36.1163 75.4716 36.2635 73.6918C36.4107 71.9211 36.8719 70.1777 37.127 68.407C37.2154 67.8229 37.2448 67.1566 37.0191 66.6363C35.9789 64.3271 34.8405 62.0544 33.4077 59.0697ZM64.762 60.0463C65.5961 65.8422 69.5412 69.2102 74.6442 69.767C80.7384 70.4333 87.4018 66.8554 87.9612 60.7856C85.184 60.5392 85.0858 60.4936 84.3302 62.027C81.553 67.6768 73.2016 69.2194 68.6776 62.6841C68.3341 62.1821 68.2262 61.4337 67.7551 61.1325C67.0584 60.6761 66.1359 60.5118 64.762 60.0372V60.0463ZM87.5 25.5539C87.0486 28.6298 86.6756 31.1307 86.3223 33.6316C86.1359 34.9277 86.4303 36.1143 87.7649 36.7167C90.6992 38.0493 93.6825 39.2815 97.392 40.8696C95.5471 34.4622 92.554 29.7525 87.5098 25.5539H87.5ZM65.7041 16.7094C68.0986 19.8401 70.13 22.4779 72.2105 25.1979C75.6747 23.7923 79.4725 24.0204 82.6815 21.5834C77.1958 18.8087 72.1222 16.3808 65.7041 16.7094ZM43.2016 22.3958C46.5382 23.2994 49.865 24.203 53.4666 25.1796C55.3802 22.4962 57.2056 19.9314 59.4921 16.7368C52.8483 16.5725 47.9808 18.9912 43.2016 22.3958ZM44.1536 60.0281C44.9779 63.2227 45.7433 63.9529 48.3145 64.181C51.6609 64.4822 52.9465 63.6516 54.6344 60.0281H44.1536ZM81.4941 59.7269C77.5883 60.0189 74.1634 59.4622 70.4931 60.1832C72.0829 63.2683 74.2517 64.7104 77.5687 64.1537C79.7571 63.7794 81.3763 62.7389 81.5039 59.736L81.4941 59.7269ZM62.7404 17.2753C61.023 19.5754 59.551 21.5469 57.9514 23.6919H67.4705C65.8513 21.5013 64.4185 19.548 62.7502 17.2753H62.7404ZM82.2497 57.5637V52.5984H76.8817V57.5637H82.2497ZM85.5275 57.4906H90.9151V52.6805H85.5275V57.4906ZM43.2703 57.4724H48.5991V52.6988H43.2703V57.4724ZM40.2281 57.5637C40.13 55.5648 40.0515 54.004 39.9828 52.6075H34.6835V57.5637H40.2281ZM65.4882 52.5984H60.1006V57.4085H65.4882V52.5984ZM84.4185 24.5316C81.3763 25.3896 79.0113 26.0559 76.3027 26.8134C79.0701 28.5568 81.3273 29.9715 84.0751 31.7057C84.2026 29.1227 84.2909 27.2242 84.4185 24.5316ZM68.6383 57.3172C70.4931 57.6549 72.5245 58.4947 73.869 56.7239C74.4578 55.9481 74.4578 54.1409 73.869 53.3651C72.5245 51.6035 70.5029 52.4249 68.6383 52.79V57.3172ZM98.9916 52.288C96.9406 52.7261 94.919 51.5761 93.8199 53.3651C93.2802 54.2322 93.2409 55.9481 93.8199 56.7239C95.1545 58.4855 97.1565 57.6732 98.9818 57.3081V52.288H98.9916ZM56.7247 52.3702C54.8601 52.6896 52.8091 51.6035 51.7198 53.292C51.131 54.2048 51.1997 56.1946 51.9062 56.9795C53.1231 58.3486 55.0858 57.6641 56.7345 57.3902V52.3702H56.7247ZM26.6167 58.0566C28.6972 57.1712 30.9543 58.6863 31.8179 56.4958C32.2007 55.5191 32.132 53.8762 31.4744 53.1643C30.2085 51.7769 28.3243 52.498 26.6167 52.6349V58.0657V58.0566ZM40.4833 24.349C41.759 27.2607 40.2183 29.6156 42.5147 31.2585C44.497 29.7616 46.2635 28.4199 48.501 26.7313C45.8807 25.9555 43.8199 25.3348 40.4833 24.349ZM89.3842 40.176C90.0024 42.9689 90.5225 45.2599 91.0329 47.56C92.76 45.9262 94.1536 44.6119 95.7041 43.1515C93.8788 42.2935 91.9259 41.3717 89.3842 40.1851V40.176ZM34.4185 47.6878C34.9779 45.2234 35.4882 42.9598 36.1261 40.1577C33.4862 41.399 31.5333 42.3118 29.7276 43.1606C31.2978 44.6758 32.6815 46.0084 34.4087 47.6878H34.4185ZM98.9033 44.7853C96.5873 46.6747 94.8503 48.0803 92.446 50.0427H98.9033V44.7853ZM26.6266 49.997H33.1035C30.552 48.0255 28.7561 46.629 26.6266 44.977V49.997Z" fill="#18514B"/>
<path d="M95.135 93.3613C92.24 93.3796 89.4137 90.9061 89.4235 88.3595C89.4235 85.8586 92.4657 83.3212 95.3018 83.4307C97.8533 83.5311 100.621 86.0412 100.68 88.3048C100.739 90.8787 98.03 93.3431 95.135 93.3613ZM97.1664 88.9437C97.2547 87.2734 96.0574 85.8221 94.7032 86.2237C93.82 86.4884 92.6129 87.6111 92.6423 88.3048C92.6816 89.2905 93.1526 90.7053 94.978 90.6505C96.3518 90.614 97.1468 90.1759 97.1664 88.9437Z" fill="#18514B"/>
<path d="M53.9573 42.2661C54.026 45.7163 52.0044 47.7426 48.4813 47.7608C45.1644 47.77 43.1035 45.8806 42.9956 42.7225C42.9073 39.893 45.2527 37.1822 47.9612 36.9996C51.0231 36.7988 53.8788 39.3088 53.9475 42.2661H53.9573ZM48.2458 39.6922C46.9799 39.6557 45.9298 40.8879 45.9298 42.5308C45.9298 43.7356 45.9691 44.9496 47.8238 45.05C49.7964 45.1504 50.9151 44.3746 51.0525 42.6404C51.1604 41.2256 49.7473 39.7378 48.2458 39.6922Z" fill="#18514B"/>
<path d="M82.4951 42.3026C82.5638 45.6889 80.4244 47.7882 76.9406 47.7608C73.6727 47.7334 71.5628 45.7619 71.4647 42.6677C71.3764 39.6922 73.869 37.173 77.0682 36.9904C79.6688 36.8444 82.4264 39.5553 82.4853 42.3026H82.4951ZM79.2272 44.8857C79.3744 43.7904 79.5118 43.0876 79.5707 42.3665C79.6786 40.9883 78.9033 40.0846 77.5589 39.7287C76.5285 39.4548 74.6345 40.8696 74.4676 41.8827C74.2223 43.3888 74.7424 44.5662 76.3911 44.9769C77.1173 45.1595 77.9514 44.9404 79.2272 44.8765V44.8857Z" fill="#18514B"/>
<path d="M62.7012 39.6374C59.6786 39.6374 57.0192 37.3282 56.9308 34.6082C56.8425 31.943 59.5118 29.4603 62.5442 29.3964C65.8317 29.3234 68.7169 31.8517 68.5697 34.6812C68.4323 37.4012 65.7925 39.6283 62.7012 39.6374ZM65.6158 34.9642C65.8906 33.6316 64.7817 32.3172 63.2115 32.1255C61.5334 31.9247 60.1693 32.7188 59.8749 34.0788C59.5805 35.4388 60.66 36.7166 62.2694 36.9174C63.8886 37.1182 65.3509 36.2694 65.6158 34.955V34.9642Z" fill="#18514B"/>
<path d="M73.5843 89.7287H52.2399C51.9062 88.4417 51.4352 87.1547 53.496 87.1365C59.6687 87.0726 65.8415 87.1182 72.0142 87.1091C73.8101 87.1091 73.5255 88.2409 73.5843 89.7378V89.7287Z" fill="#18514B"/>
<path d="M35.4588 88.4965C35.4686 91.4264 33.4274 93.3705 30.3754 93.3431C27.7552 93.3249 25.292 90.8148 25.3607 88.2318C25.4195 85.9317 27.922 83.522 30.3165 83.4581C32.8484 83.3851 35.449 85.9317 35.4588 88.4965ZM33.7611 88.5604C32.3577 87.5016 31.5334 86.3789 30.5618 86.2603C29.1291 86.0868 28.2655 87.1547 28.3047 88.6151C28.3342 89.8199 28.8052 90.897 30.2674 90.5593C31.3371 90.3128 32.24 89.464 33.7611 88.5604Z" fill="#18514B"/>
</svg>
