<svg width="65" height="65" viewBox="0 0 65 65" fill="none" xmlns="http://www.w3.org/2000/svg">
<g clip-path="url(#clip0_126_202)">
<path d="M32.5022 0C14.5531 0 0.00219727 14.5509 0.00219727 32.5C0.00219727 47.7412 10.4958 60.5306 24.6515 64.0432V42.432H17.95V32.5H24.6515V28.2204C24.6515 17.1587 29.6578 12.0315 40.518 12.0315C42.5772 12.0315 46.1301 12.4358 47.5835 12.8388V21.8413C46.8165 21.7607 45.484 21.7204 43.8291 21.7204C38.5004 21.7204 36.4412 23.7393 36.4412 28.9874V32.5H47.057L45.2331 42.432H36.4412V64.7621C52.5339 62.8186 65.0035 49.1166 65.0035 32.5C65.0022 14.5509 50.4513 0 32.5022 0Z" fill="#18514B"/>
</g>
<defs>
<clipPath id="clip0_126_202">
<rect width="65" height="65" fill="white" transform="translate(0.00219727)"/>
</clipPath>
</defs>
</svg>
