<svg width="88" height="61" viewBox="0 0 88 61" fill="none" xmlns="http://www.w3.org/2000/svg">
<path d="M87.2522 16.3524C86.7117 11.1655 85.5486 5.43168 81.2677 2.41841C77.9521 0.0816913 73.594 -0.00463646 69.5255 0.000161732C60.9252 0.00495993 52.3201 0.0145165 43.7198 0.0193147C35.4476 0.0289111 27.1755 0.0337327 18.9033 0.0433291C15.4477 0.0481273 12.0887 -0.220607 8.87926 1.26683C6.12349 2.54315 3.96617 4.97109 2.66792 7.67247C0.867738 11.4295 0.491312 15.6854 0.274132 19.8407C-0.126444 27.4074 -0.0830084 34.9934 0.394787 42.5553C0.747101 48.0733 1.63994 54.1718 5.93044 57.6889C9.7335 60.8029 15.1002 60.9564 20.0326 60.9612C35.6889 60.9756 51.35 60.99 67.0111 60.9996C69.0188 61.0044 71.1134 60.966 73.1597 60.7453C77.1847 60.3135 81.0215 59.1667 83.6084 56.2014C86.2194 53.2122 86.8903 49.0521 87.286 45.1127C88.2513 35.5547 88.2416 25.9056 87.2522 16.3524ZM34.6658 43.8988V17.1009L58.0054 30.4975L34.6658 43.8988Z" fill="#18514B"/>
</svg>
