<svg width="65" height="65" viewBox="0 0 65 65" fill="none" xmlns="http://www.w3.org/2000/svg">
<path d="M65.0022 15.7387V26.942C62.7423 26.7508 59.8058 26.306 56.5575 25.275C52.316 23.9281 49.1588 22.0866 47.0908 20.6607V43.3043L47.0381 43.2335C47.0717 43.6825 47.0908 44.1398 47.0908 44.6012C47.0908 55.8461 36.5302 65 23.5465 65C10.5628 65 0.00219727 55.8461 0.00219727 44.6012C0.00219727 33.3563 10.5628 24.1984 23.5465 24.1984C24.818 24.1984 26.0655 24.2856 27.2843 24.4561V35.4973C26.1135 35.1356 24.8564 34.9402 23.5465 34.9402C17.4001 34.9402 12.3957 39.2719 12.3957 44.6012C12.3957 49.9306 17.4001 54.2623 23.5465 54.2623C29.6929 54.2623 34.6973 49.9264 34.6973 44.6012C34.6973 44.4017 34.6925 44.2022 34.6781 44.0026V0H47.5994C47.6474 0.947812 47.6906 1.90398 47.7386 2.85179C47.825 4.71832 48.5926 6.51005 49.9313 7.9775C51.5003 9.70268 53.8178 11.7063 57.0709 13.3068C60.1177 14.7992 62.9774 15.4436 65.0022 15.747V15.7387Z" fill="#18514B"/>
</svg>
